<svg width="208" height="64" viewBox="0 0 208 64" fill="none" xmlns="http://www.w3.org/2000/svg">
<g clip-path="url(#clip0_252_503)">
<path d="M64 32C64 57.406 57.406 64 32 64C6.594 64 0 57.406 0 32C0 6.594 6.594 0 32 0C57.406 0 64 6.594 64 32Z" fill="#00A062"/>
<path d="M57.7236 18.4302L57.723 18.4414C57.7153 18.521 57.7065 18.6007 57.6965 18.6803C57.451 20.717 56.6858 22.5937 55.5383 24.1749C53.3937 27.129 49.9127 29.05 45.9828 29.05H43.0328C42.0228 29.05 41.3413 29.5196 40.9466 29.9138C40.5525 30.3085 40.0829 30.9899 40.0829 32C40.0829 33.01 40.5525 33.6915 40.9466 34.0862C41.3413 34.4803 42.0228 34.9499 43.0328 34.9499H55.9625C56.6144 34.9499 57.1425 35.478 57.1425 36.1299C57.1425 36.252 57.1242 36.37 57.0894 36.4809C55.1931 42.4363 49.6165 46.7497 43.0328 46.7497C34.8868 46.7497 28.2831 40.146 28.2831 32C28.2831 27.0346 30.7368 22.6421 34.4974 19.9689C36.907 18.2567 39.8522 17.2502 43.0328 17.2502H56.5436C57.1956 17.2502 57.7236 17.7782 57.7236 18.4302Z" fill="white"/>
<path d="M26.7255 38.8905C26.1874 37.6184 25.8051 36.3004 25.5786 34.9499H21.0262C20.0161 34.9499 19.3347 34.4803 18.94 34.0862C18.5459 33.6915 18.0762 33.01 18.0762 32C18.0762 30.9899 18.5459 30.3085 18.94 29.9137C19.3347 29.5196 20.0161 29.05 21.0262 29.05H23.9761C24.5266 29.05 25.0676 29.0111 25.598 28.9379C25.6718 28.5161 25.7603 28.0978 25.8641 27.6836C26.2063 26.3183 26.7131 24.9944 27.3709 23.7478C28.6601 21.3058 30.5333 19.1677 32.7888 17.5641C32.9399 17.4567 33.0927 17.3523 33.2467 17.2502H21.0262C17.8455 17.2502 14.9003 18.2567 12.4908 19.9689C8.73019 22.6421 6.27641 27.0346 6.27641 32C6.27641 40.146 12.8802 46.7497 21.0262 46.7497C24.3372 46.7497 27.394 45.6582 29.8554 43.8157C28.5433 42.3555 27.4919 40.7029 26.7255 38.8905Z" fill="white"/>
</g>
<path fill-rule="evenodd" clip-rule="evenodd" d="M144.192 34.1282C144.942 41.405 150.524 46.7498 159.199 46.7498C167.414 46.7498 172.831 42.4861 173.707 35.5827H167.037C166.369 39.2515 163.285 41.227 159.281 41.227C154.684 41.227 151.496 38.7869 150.884 34.1325H144.192V34.1282ZM150.88 30.759C151.478 26.1133 154.675 23.6601 159.281 23.6601C163.285 23.6601 166.369 25.5922 167.037 29.2654H173.707C172.831 22.3967 167.414 18.1374 159.199 18.1374C150.507 18.1374 144.92 23.4995 144.187 30.7633H150.88V30.759ZM79.9809 46.3547H87.1029L91.3449 41.9391H87.4325C87.0031 41.9391 86.6518 41.5917 86.6518 41.1576V27.342C86.6518 26.5214 87.7535 26.2565 88.1265 26.986L98.0461 46.3547H109.085V18.5325H102.414L102.982 37.7796C103.004 38.6089 101.889 38.8998 101.507 38.1617L91.3275 18.5325H79.9809V46.3547ZM113.292 46.3547H120.965L123.637 42.7206L127.51 37.5105C128.195 36.59 129.575 36.59 130.26 37.5105L136.848 46.359H144.521L134.697 32.5782H132.277L142.032 18.5325H136.848L130.264 27.3463C129.575 28.2668 128.2 28.2624 127.514 27.342L120.965 18.5325H115.135L125.137 32.5738H122.596L113.292 46.3547Z" fill="#00A062"/>
<path fill-rule="evenodd" clip-rule="evenodd" d="M176.474 34.1282C177.224 41.405 182.806 46.7498 191.481 46.7498C199.696 46.7498 205.114 42.4861 205.99 35.5827H199.319C198.651 39.2515 195.567 41.227 191.564 41.227C186.966 41.227 183.778 38.7869 183.166 34.1325H176.474V34.1282ZM183.162 30.759C183.761 26.1133 186.957 23.6601 191.564 23.6601C195.567 23.6601 198.651 25.5922 199.319 29.2654H205.99C205.114 22.3967 199.696 18.1374 191.481 18.1374C182.789 18.1374 177.202 23.4995 176.469 30.7633H183.162V30.759Z" fill="#00A062"/>
<defs>
<clipPath id="clip0_252_503">
<rect width="64" height="64" fill="white"/>
</clipPath>
</defs>
</svg>
