<svg width="24" height="25" viewBox="0 0 24 25" fill="none" xmlns="http://www.w3.org/2000/svg">
<path d="M10.9538 3.28594C7.49474 3.65494 4.57635 5.8329 3.16303 8.85546H8.07575C8.44942 7.53895 8.96011 6.40851 9.46938 5.49181C9.96076 4.60733 10.4531 3.91762 10.8254 3.446C10.87 3.38954 10.9129 3.33617 10.9538 3.28594Z" fill="#9B9F9E"/>
<path d="M2.60744 10.3555C2.37452 11.1906 2.25 12.071 2.25 12.9805C2.25 14.0272 2.41494 15.0354 2.72025 15.9805H7.80174C7.61347 15.0543 7.5 14.052 7.5 12.981C7.5 12.0527 7.58528 11.1758 7.73063 10.3555H2.60744Z" fill="#9B9F9E"/>
<path d="M3.34831 17.4805C4.82142 20.3069 7.63892 22.321 10.9528 22.6749C10.9121 22.625 10.8696 22.5721 10.8254 22.5161C10.4531 22.0445 9.96076 21.3548 9.46938 20.4703C9.00898 19.6415 8.54742 18.6381 8.18698 17.4805H3.34831Z" fill="#9B9F9E"/>
<path d="M13.0472 22.6749C16.3611 22.321 19.1786 20.3069 20.6517 17.4805H15.813C15.4526 18.6381 14.991 19.6415 14.5306 20.4703C14.0392 21.3548 13.5469 22.0445 13.1746 22.5161C13.1304 22.5721 13.0879 22.625 13.0472 22.6749Z" fill="#9B9F9E"/>
<path d="M21.2798 15.9805C21.5851 15.0354 21.75 14.0272 21.75 12.9805C21.75 12.071 21.6255 11.1906 21.3926 10.3555H16.2694C16.4147 11.1758 16.5 12.0527 16.5 12.981C16.5 14.052 16.3865 15.0543 16.1983 15.9805H21.2798Z" fill="#9B9F9E"/>
<path d="M20.837 8.85546C19.4237 5.8329 16.5053 3.65494 13.0462 3.28594C13.0871 3.33617 13.13 3.38954 13.1746 3.446C13.5469 3.91762 14.0392 4.60733 14.5306 5.49181C15.0399 6.40851 15.5506 7.53895 15.9243 8.85546H20.837Z" fill="#9B9F9E"/>
<path d="M13.2194 19.7418C12.7745 20.5426 12.3305 21.1642 12 21.5832C11.6695 21.1642 11.2255 20.5426 10.7806 19.7418C10.4227 19.0975 10.0656 18.34 9.7662 17.4805H14.2338C13.9344 18.34 13.5773 19.0975 13.2194 19.7418Z" fill="#9B9F9E"/>
<path d="M15 12.981C15 14.0604 14.8719 15.0634 14.664 15.9805H9.33596C9.12812 15.0634 9 14.0604 9 12.981C9 12.0466 9.09604 11.1693 9.25671 10.3555H14.7433C14.904 11.1693 15 12.0466 15 12.981Z" fill="#9B9F9E"/>
<path d="M13.2194 6.22028C13.6283 6.95641 14.0362 7.84045 14.3582 8.85546H9.64181C9.96379 7.84045 10.3717 6.95641 10.7806 6.22028C11.2255 5.41946 11.6695 4.79789 12 4.37892C12.3305 4.79789 12.7745 5.41946 13.2194 6.22028Z" fill="#9B9F9E"/>
</svg>
