<svg width="16" height="17" viewBox="0 0 16 17" fill="none" xmlns="http://www.w3.org/2000/svg">
<g clip-path="url(#clip0_2849_1437)">
<path d="M5.57533 0.987551C3.97668 1.54214 2.59801 2.59476 1.64182 3.9908C0.685628 5.38685 0.202319 7.05273 0.262883 8.74376C0.323447 10.4348 0.92469 12.0618 1.9783 13.3859C3.03191 14.71 4.48235 15.6613 6.11658 16.1001C7.44148 16.4419 8.82959 16.4569 10.1616 16.1438C11.3682 15.8728 12.4838 15.293 13.3991 14.4613C14.3517 13.5692 15.0431 12.4344 15.3991 11.1788C15.7858 9.81337 15.8547 8.37748 15.6003 6.9813H8.16033V10.0676H12.4691C12.383 10.5598 12.1984 11.0296 11.9265 11.4488C11.6546 11.8681 11.3009 12.2282 10.8866 12.5076C10.3605 12.8557 9.76736 13.0899 9.14533 13.1951C8.52151 13.3111 7.88165 13.3111 7.25783 13.1951C6.62552 13.0645 6.02738 12.8035 5.50158 12.4288C4.65677 11.8308 4.02243 10.9812 3.68908 10.0013C3.35019 9.00303 3.35019 7.92082 3.68908 6.92255C3.92636 6.22282 4.31862 5.58572 4.83658 5.0588C5.42932 4.44473 6.17975 4.0058 7.00552 3.79015C7.8313 3.5745 8.70053 3.59046 9.51783 3.8363C10.1563 4.03221 10.7402 4.37465 11.2228 4.8363C11.7087 4.35297 12.1937 3.86838 12.6778 3.38255C12.9278 3.1213 13.2003 2.87255 13.4466 2.60505C12.7097 1.91945 11.8449 1.38593 10.9016 1.03505C9.18371 0.411289 7.30405 0.394526 5.57533 0.987551Z" fill="white"/>
<path d="M5.5725 0.988159C7.30108 0.39473 9.18074 0.411052 10.8987 1.03441C11.8422 1.38767 12.7067 1.92376 13.4425 2.61191C13.1925 2.87941 12.9287 3.12941 12.6737 3.38941C12.1887 3.87358 11.7042 4.35608 11.22 4.83691C10.7374 4.37526 10.1535 4.03281 9.515 3.83691C8.69797 3.59021 7.82877 3.57332 7.00277 3.78809C6.17678 4.00286 5.42589 4.44099 4.8325 5.05441C4.31454 5.58133 3.92228 6.21843 3.685 6.91816L1.09375 4.91191C2.02126 3.07261 3.62719 1.66569 5.5725 0.988159Z" fill="#E33629"/>
<path d="M0.408903 6.89766C0.548077 6.20737 0.77931 5.5389 1.0964 4.91016L3.68765 6.92141C3.34876 7.91968 3.34876 9.00188 3.68765 10.0002C2.82432 10.6668 1.96057 11.3368 1.0964 12.0102C0.302841 10.4306 0.0608185 8.63078 0.408903 6.89766Z" fill="#F8BD00"/>
<path d="M8.15681 6.98047H15.5968C15.8512 8.37664 15.7823 9.81253 15.3956 11.178C15.0396 12.4336 14.3482 13.5684 13.3956 14.4605C12.5593 13.808 11.7193 13.1605 10.8831 12.508C11.2977 12.2283 11.6515 11.8678 11.9234 11.4481C12.1954 11.0284 12.3798 10.5581 12.4656 10.0655H8.15681C8.15556 9.03797 8.15681 8.00922 8.15681 6.98047Z" fill="#587DBD"/>
<path d="M1.09375 12.01C1.95792 11.3433 2.82167 10.6733 3.685 10C4.01901 10.9802 4.65426 11.8299 5.5 12.4275C6.02744 12.8005 6.62687 13.0593 7.26 13.1875C7.88382 13.3035 8.52368 13.3035 9.1475 13.1875C9.76953 13.0824 10.3627 12.8482 10.8888 12.5C11.725 13.1525 12.565 13.8 13.4012 14.4525C12.4861 15.2847 11.3705 15.8649 10.1637 16.1363C8.83176 16.4494 7.44365 16.4344 6.11875 16.0925C5.07088 15.8127 4.09209 15.3195 3.24375 14.6438C2.34591 13.9308 1.61254 13.0324 1.09375 12.01Z" fill="#319F43"/>
</g>
<defs>
<clipPath id="clip0_2849_1437">
<rect width="16" height="16" fill="white" transform="translate(0 0.460938)"/>
</clipPath>
</defs>
</svg>
