<svg width="56" height="56" viewBox="0 0 56 56" fill="none" xmlns="http://www.w3.org/2000/svg">
<path d="M24.6651 31.3364C20.3568 27.039 16.2441 22.0603 18.2153 20.0874C21.0416 17.2665 23.4929 15.5272 18.4961 9.30574C13.4994 3.08426 10.1658 7.8636 7.4337 10.5957C4.28128 13.7481 7.26883 25.499 18.8838 37.1194C30.4988 48.7399 42.2516 51.722 45.4076 48.5696C48.1342 45.8303 52.9063 42.5057 46.6957 37.509C40.4851 32.5122 38.7422 34.9671 35.9232 37.7862C33.9411 39.7573 28.9643 35.6447 24.6651 31.3364Z" fill="#666666"/>
<path d="M28.0027 10.5419H46.8556" stroke="#666666" stroke-width="2.8" stroke-linecap="round"/>
<path d="M35.8218 17.5419L46.8556 17.5419" stroke="#666666" stroke-width="2.8" stroke-linecap="round"/>
<path d="M34.3879 24.5419L46.8556 24.5419" stroke="#666666" stroke-width="2.8" stroke-linecap="round"/>
</svg>
