<svg width="56" height="56" viewBox="0 0 56 56" fill="none" xmlns="http://www.w3.org/2000/svg">
<path d="M26 12H16C12.6863 12 10 14.6863 10 18V38C10 41.3137 12.6863 44 16 44H26" stroke="#00A062" stroke-width="6" stroke-linecap="round" stroke-linejoin="round"/>
<path d="M34.1683 22.5048H25.5143C24.4098 22.5048 23.5143 23.4002 23.5143 24.5048V31.4953C23.5143 32.5998 24.4098 33.4953 25.5143 33.4953H34.1683V36.9809C34.1683 38.5989 35.9896 39.5473 37.3152 38.6194L50.145 29.6385C51.2824 28.8423 51.2824 27.1578 50.145 26.3616L37.3152 17.3807C35.9896 16.4528 34.1683 17.4011 34.1683 19.0192V22.5048Z" fill="#00A062"/>
</svg>
