<svg width="32" height="32" viewBox="0 0 32 32" fill="none" xmlns="http://www.w3.org/2000/svg">
<g clip-path="url(#clip0_252_489)">
<path d="M25.7655 24.2675L26.5259 24.917L25.7655 24.2675ZM29.0455 20.6739C29.2426 20.158 28.9841 19.58 28.4682 19.3829C27.9522 19.1859 27.3742 19.4443 27.1772 19.9603L29.0455 20.6739ZM27.2308 6.97711C25.2014 4.18398 22.2421 2.2066 18.885 1.40063L18.4181 3.34537C21.3121 4.04017 23.8633 5.74481 25.6127 8.15268L27.2308 6.97711ZM18.885 1.40063C15.5279 0.594663 11.9934 1.013 8.91716 2.5804L9.82514 4.36241C12.477 3.01121 15.524 2.65057 18.4181 3.34537L18.885 1.40063ZM8.91716 2.5804C5.84096 4.1478 3.42498 6.7614 2.10377 9.95109L3.95152 10.7165C5.0905 7.96672 7.17325 5.71362 9.82514 4.36241L8.91716 2.5804ZM2.10377 9.95109C0.782553 13.1408 0.642819 16.6972 1.7097 19.9807L3.61181 19.3627C2.69209 16.5321 2.81255 13.4662 3.95152 10.7165L2.10377 9.95109ZM1.7097 19.9807C2.77658 23.2643 4.98005 26.0594 7.92379 27.8633L8.96879 26.158C6.43108 24.6029 4.53154 22.1933 3.61181 19.3627L1.7097 19.9807ZM7.92379 27.8633C10.8675 29.6672 14.3583 30.3616 17.7683 29.8215L17.4554 27.8461C14.5158 28.3117 11.5065 27.7131 8.96879 26.158L7.92379 27.8633ZM17.7683 29.8215C21.1783 29.2814 24.2837 27.5423 26.5259 24.917L25.0051 23.6181C23.0721 25.8813 20.3951 27.3805 17.4554 27.8461L17.7683 29.8215ZM26.5259 24.917C27.6106 23.647 28.4588 22.21 29.0455 20.6739L27.1772 19.9603C26.6714 21.2845 25.9401 22.5233 25.0051 23.6181L26.5259 24.917Z" fill="#0FD057"/>
<path d="M29.0576 11.1922L29.3614 5.42908L23.4827 9.70022L29.0576 11.1922Z" fill="#0FD057"/>
<path d="M16 8V16L11.4727 21.0185" stroke="#0FD057" stroke-width="2" stroke-linecap="round" stroke-linejoin="round"/>
</g>
<defs>
<clipPath id="clip0_252_489">
<rect width="32" height="32" fill="white"/>
</clipPath>
</defs>
</svg>
