<svg width="20" height="20" viewBox="0 0 20 20" fill="none" xmlns="http://www.w3.org/2000/svg">
<path fill-rule="evenodd" clip-rule="evenodd" d="M2.26844 10.5886C2.51133 10.488 2.79091 10.5436 2.97681 10.7295L4.78741 12.5401C5.04125 12.7939 5.04125 13.2055 4.78741 13.4593C4.53357 13.7131 4.12201 13.7131 3.86817 13.4593L3.16719 12.7583V13.6896C3.16719 15.1266 4.33212 16.2915 5.76913 16.2915H9.02375C9.38274 16.2915 9.67375 16.5825 9.67375 16.9415C9.67375 17.3005 9.38274 17.5915 9.02375 17.5915H5.76913C3.61415 17.5915 1.86719 15.8445 1.86719 13.6896V11.1891C1.86719 10.9262 2.02555 10.6892 2.26844 10.5886Z" fill="#333333"/>
<path fill-rule="evenodd" clip-rule="evenodd" d="M1.29883 3.71191H9.64579V9.28479H1.29883V3.71191ZM2.59883 5.01191V7.98479H8.34579V5.01191H2.59883Z" fill="#333333"/>
<path fill-rule="evenodd" clip-rule="evenodd" d="M4.82227 11.5781V1.85254H6.12227V11.5781H4.82227Z" fill="#333333"/>
<path fill-rule="evenodd" clip-rule="evenodd" d="M14.4154 8.50488C14.6803 8.50488 14.9187 8.66566 15.018 8.91128L18.653 17.9034L17.4478 18.3906L14.4154 10.8892L11.383 18.3906L10.1777 17.9034L13.8128 8.91127C13.912 8.66566 14.1505 8.50488 14.4154 8.50488Z" fill="#333333"/>
<path fill-rule="evenodd" clip-rule="evenodd" d="M16.5053 15.0656H12.3281V13.7656H16.5053V15.0656Z" fill="#333333"/>
<path fill-rule="evenodd" clip-rule="evenodd" d="M17.7316 9.41144C17.4887 9.51205 17.2091 9.45644 17.0232 9.27054L15.2126 7.45994C14.9588 7.2061 14.9588 6.79454 15.2126 6.5407C15.4664 6.28686 15.878 6.28686 16.1318 6.5407L16.8328 7.24168L16.8328 6.31044C16.8328 4.87343 15.6679 3.7085 14.2309 3.7085L10.9762 3.7085C10.6173 3.7085 10.3262 3.41748 10.3262 3.0585C10.3262 2.69951 10.6173 2.4085 10.9762 2.4085L14.2309 2.4085C16.3859 2.4085 18.1328 4.15546 18.1328 6.31044L18.1328 8.81092C18.1328 9.07382 17.9744 9.31083 17.7316 9.41144Z" fill="#333333"/>
</svg>
