<svg width="24" height="24" viewBox="0 0 24 24" fill="none" xmlns="http://www.w3.org/2000/svg">
<path d="M11.9807 0.429688C9.24199 0.429688 7.02197 2.64973 7.02197 5.38837V18.6115C7.02197 21.3501 9.24195 23.5702 11.9807 23.5702C14.7192 23.5702 16.9392 21.3501 16.9392 18.6115V5.38837C16.9392 2.64977 14.7192 0.429688 11.9807 0.429688ZM14.7355 16.4863C14.7355 18.5729 13.502 20.2644 11.9807 20.2644C10.4593 20.2644 9.22583 18.5729 9.22583 16.4863V6.41154C9.22583 4.32506 10.4593 2.63357 11.9807 2.63357C13.502 2.63357 14.7355 4.32506 14.7355 6.41154V16.4863Z" fill="#9B9F9E"/>
<path d="M11.9808 7.0415C7.41635 7.0415 3.71631 10.7417 3.71631 15.306C3.71631 19.8703 7.41635 23.5704 11.9808 23.5704C16.5451 23.5704 20.2452 19.8703 20.2452 15.306C20.2452 10.7417 16.545 7.0415 11.9808 7.0415ZM12.9616 16.0808C12.9841 16.1653 13.0138 16.2474 13.0138 16.339V18.4051C13.0138 18.9756 12.5512 19.4382 11.9808 19.4382C11.4102 19.4382 10.9477 18.9756 10.9477 18.4051V16.339C10.9477 16.2474 10.9775 16.1653 10.9999 16.0808C10.3564 15.7307 9.91469 15.0569 9.91469 14.2729C9.91469 13.1319 10.8396 12.2068 11.9808 12.2068C13.1219 12.2068 14.0469 13.1319 14.0469 14.2729C14.0469 15.0569 13.6051 15.7307 12.9616 16.0808Z" fill="#9B9F9E"/>
</svg>
