<svg width="24" height="24" viewBox="0 0 24 24" fill="none" xmlns="http://www.w3.org/2000/svg">
<path d="M11.7721 1.31982C14.7721 1.31982 17.1961 3.70782 17.1961 6.65982C17.1961 9.61182 14.7601 11.9998 11.7721 11.9998C8.77212 11.9998 6.34812 9.61182 6.34812 6.65982C6.34812 3.70782 8.77212 1.31982 11.7721 1.31982ZM11.7721 1.31982C14.7721 1.31982 17.1961 3.70782 17.1961 6.65982C17.1961 9.61182 14.7601 11.9998 11.7721 11.9998C8.77212 11.9998 6.34812 9.61182 6.34812 6.65982C6.34812 3.70782 8.77212 1.31982 11.7721 1.31982ZM9.73212 13.7758H14.2561C18.1321 13.7758 21.2641 16.8598 21.2641 20.6758V21.1198C21.2641 22.6198 18.1201 22.6798 14.2561 22.6798H9.73212C5.85612 22.6798 2.72412 22.6798 2.72412 21.1198V20.6758C2.72412 16.8718 5.86812 13.7758 9.73212 13.7758Z" fill="#9B9F9E"/>
</svg>
