<svg width="20" height="20" viewBox="0 0 20 20" fill="none" xmlns="http://www.w3.org/2000/svg">
<path fill-rule="evenodd" clip-rule="evenodd" d="M12.3304 13.006C12.3304 13.006 11.7075 13.1795 9.47124 10.8616L9.39976 10.7799C7.24517 8.51297 7.36771 7.94114 7.36771 7.94114L7.5413 7.79818C8.68497 6.87916 9.43039 6.00099 7.74552 3.79534C7.12263 3.00907 6.49974 2.5904 5.8258 2.50871C4.84551 2.41681 4.07966 3.07034 3.45677 3.60132L3.17085 3.8464C2.74198 4.23443 2.4969 4.78584 2.50712 5.36788C2.405 6.94043 3.40571 9.95277 6.53038 13.2408C8.9811 15.7834 12.4427 17.8972 14.6586 17.8972C15.1589 17.9176 15.6593 17.7644 16.0575 17.4581L16.3537 17.2334C17.0072 16.7229 17.8241 16.1 17.8547 15.1503C17.8547 14.5172 17.4769 13.8535 16.6906 13.1898C14.5973 11.413 13.6272 11.9338 12.4938 12.8732L12.3304 13.006Z" fill="#C0C6CC"/>
<circle cx="14.51" cy="6.25" r="3.75" stroke="#C0C6CC" stroke-width="1.5"/>
<path d="M17.01 3.75L12.01 8.75" stroke="#C0C6CC" stroke-width="1.5"/>
</svg>
