<svg width="32" height="32" viewBox="0 0 32 32" fill="none" xmlns="http://www.w3.org/2000/svg">
<path d="M14.2679 5.22851C15.0377 3.89518 16.9622 3.89518 17.732 5.22852L29.0152 24.7715C29.785 26.1048 28.8227 27.7715 27.2831 27.7715H4.71685C3.17725 27.7715 2.215 26.1048 2.9848 24.7715L14.2679 5.22851Z" stroke="#ED9B20" stroke-width="2"/>
<path d="M16.0008 11.1085L16.0008 11.1085C16.2031 11.1086 16.4032 11.1508 16.5883 11.2325C16.7734 11.3142 16.9394 11.4335 17.0758 11.583C17.2121 11.7324 17.3159 11.9086 17.3804 12.1004C17.4448 12.2921 17.4686 12.4952 17.4503 12.6967L17.4503 12.6967L16.8636 19.1529C16.8636 19.1529 16.8636 19.153 16.8636 19.153C16.8412 19.3662 16.7406 19.5635 16.5813 19.707C16.422 19.8504 16.2152 19.9298 16.0008 19.9298C15.7864 19.9298 15.5796 19.8504 15.4203 19.707C15.261 19.5635 15.1604 19.3662 15.138 19.153C15.138 19.153 15.138 19.1529 15.138 19.1529L14.5497 12.6967L14.5497 12.6967C14.5313 12.4951 14.5552 12.2919 14.6197 12.1C14.6843 11.9081 14.7882 11.7318 14.9248 11.5824C15.0613 11.4329 15.2275 11.3136 15.4128 11.232C15.5981 11.1504 15.7983 11.1083 16.0008 11.1085ZM16.9015 23.5976C16.6626 23.8365 16.3386 23.9707 16.0008 23.9707C15.663 23.9707 15.339 23.8365 15.1001 23.5976C14.8613 23.3588 14.7271 23.0348 14.7271 22.697C14.7271 22.3592 14.8613 22.0352 15.1001 21.7963C15.339 21.5575 15.663 21.4233 16.0008 21.4233C16.3386 21.4233 16.6626 21.5575 16.9015 21.7963C17.1403 22.0352 17.2745 22.3592 17.2745 22.697C17.2745 23.0348 17.1403 23.3588 16.9015 23.5976Z" fill="#ED9B20" stroke="#ED9B20" stroke-width="0.03125"/>
</svg>
